<svg width="29" height="39" viewBox="0 0 29 39" fill="none" xmlns="http://www.w3.org/2000/svg">
<path d="M14.5 37.3554C6.49479 37.3554 0 29.6735 0 21.6903C0 13.2552 4.83333 1.20502 14.5 1.20502C24.1667 1.20502 29 13.2552 29 21.6903C29 29.6735 22.5052 37.3554 14.5 37.3554ZM11.6906 10.092C12.1815 9.64011 12.2193 8.87945 11.7661 8.38991C11.313 7.90037 10.5503 7.86272 10.0594 8.3146C8.25443 9.95643 6.95547 12.2836 6.10964 14.656C5.2638 17.0284 4.83333 19.5589 4.83333 21.6903C4.83333 22.353 5.37708 22.8953 6.04167 22.8953C6.70625 22.8953 7.25 22.353 7.25 21.6903C7.25 19.8451 7.6276 17.5932 8.39036 15.4543C9.15312 13.3079 10.2784 11.3799 11.6906 10.092Z" fill="#A0A0A0"/>
</svg>
